# xmcd
#
# Track frame offsets: 
#        150
#        16715
#        37322
#        63820
#        75900
#        87262
#        107520
#        125475
#        155775
#        172782
#        202470
#        220700
#        243975
#        261065
#        288920
#        312127
#        321237
#
# Disc length: 4488 seconds
#
# Revision: 1
# Processed by: cddbd v1.5.2PL0 Copyright (c) Steve Scherf et al.
# Submitted via: ExactAudioCopy v1.0b2
#
DISCID=e2118611
DTITLE=Quatuors Wiener Konzethaus - Quatuors Wiener Konzethaus 5
DYEAR=1900
DGENRE=
TTITLE0=Op2 №4 F-Dur 1-Presto
TTITLE1=Op2 №4 F-Dur 2-Menuetto
TTITLE2=Op2 №4 F-Dur 3-Adagio non troppo
TTITLE3=Op2 №4 F-Dur 4-Menuetto
TTITLE4=Op2 №4 F-Dur 5-Allegro
TTITLE5=Op17 №5 G-Dur 1-Moderato
TTITLE6=Op17 №5 G-Dur 2-Menuetto
TTITLE7=Op17 №5 G-Dur 3-Adagio
TTITLE8=Op17 №5 G-Dur 4-Presto
TTITLE9=Op.20 №1 Es-Dur 1- Allegro moderato
TTITLE10=Op.20 №1 Es-Dur 2-Menuettto Allegretto
TTITLE11=Op.20 №1 Es-Dur 3-Affetuoso e sostenuto
TTITLE12=Op.20 №1 Es-Dur 4-Finale Presto
TTITLE13=Op.20 №6 A-Dur 1-Allegro di molto e scherzando
TTITLE14=Op.20 №6 A-Dur 2-Adagio cantabile
TTITLE15=Op.20 №6 A-Dur 3-Menuetto Allegretto
TTITLE16=Op.20 №6 A-Dur 4-Fuga a 3 Sogetti.Adagio
EXTD=
EXTT0=
EXTT1=
EXTT2=
EXTT3=
EXTT4=
EXTT5=
EXTT6=
EXTT7=
EXTT8=
EXTT9=
EXTT10=
EXTT11=
EXTT12=
EXTT13=
EXTT14=
EXTT15=
EXTT16=
PLAYORDER=
